<?xml version="1.0" standalone="no"?>
<!DOCTYPE svg PUBLIC "-//W3C//DTD SVG 20010904//EN"
 "http://www.w3.org/TR/2001/REC-SVG-20010904/DTD/svg10.dtd">
<svg version="1.0" xmlns="http://www.w3.org/2000/svg"
 width="809.000000pt" height="312.000000pt" viewBox="0 0 809.000000 312.000000"
 preserveAspectRatio="xMidYMid meet">

<g transform="translate(0.000000,312.000000) scale(0.100000,-0.100000)"
fill="#000000" stroke="none">
<path d="M2127 1743 c-9 -10 -491 -396 -1071 -858 -829 -660 -1055 -845 -1056
-862 l0 -23 4045 0 4045 0 0 23 c-1 17 -227 202 -1056 862 -580 462 -1062 848
-1071 858 -15 16 -119 17 -1918 17 -1799 0 -1903 -1 -1918 -17z m2793 -943 l0
-420 -740 0 -740 0 0 105 0 105 -125 0 -125 0 0 315 0 315 865 0 865 0 0 -420z"/>
</g>
</svg>
